<svg width="7" height="11" viewBox="0 0 7 11" fill="none" xmlns="http://www.w3.org/2000/svg">
<path d="M6.03858 0C6.17639 0 6.27661 0.100225 6.27661 0.238035V9.797C6.27661 9.93481 6.17639 10.035 6.03858 10.035H0.238048C0.100238 10.035 1.33514e-05 9.93481 1.33514e-05 9.797V0.238035C1.33514e-05 0.100225 0.100238 0 0.238048 0L6.03858 0ZM5.0238 1.25281H1.26536V7.51688H5.0238V1.25281ZM3.14458 8.14329C2.79379 8.14329 2.51817 8.41891 2.51817 8.7697C2.51817 9.12048 2.79379 9.3961 3.14458 9.3961C3.49536 9.3961 3.77098 9.12048 3.77098 8.7697C3.77098 8.41891 3.49536 8.14329 3.14458 8.14329Z" fill="black"/>
</svg>
