<svg width="30" height="30" viewBox="0 0 30 30" fill="none" xmlns="http://www.w3.org/2000/svg">
<mask id="mask0_63_21477" style="mask-type:luminance" maskUnits="userSpaceOnUse" x="0" y="14" width="30" height="16">
<path d="M0.0534668 29.5996H29.5996V14.7995H0.0534668V29.5996Z" fill="white"/>
</mask>
<g mask="url(#mask0_63_21477)">
<path d="M1.72251 14.7995C0.750112 14.7995 -0.00261219 15.6512 0.114891 16.6164C0.512151 19.8817 1.97749 22.9017 4.33971 25.2641C7.13499 28.0594 10.8517 29.5988 14.8039 29.5988C19.3473 29.5988 23.5791 27.5223 26.3598 24.0473V26.5853C26.3598 27.4675 27.0513 28.2126 27.9327 28.237C28.8473 28.2617 29.597 27.5283 29.597 26.6188V20.6872C29.597 19.4906 28.6269 18.5205 27.4303 18.5205H21.5618C20.6796 18.5205 19.9345 19.212 19.9102 20.0935C19.8854 21.008 20.6188 21.7578 21.5283 21.7578H24.039C21.8723 24.6327 18.4677 26.3613 14.8045 26.3613C8.90817 26.3613 4.02886 21.9248 3.32913 16.2143C3.22975 15.4049 2.53827 14.7997 1.7231 14.7997L1.72251 14.7995Z" fill="black"/>
</g>
<mask id="mask1_63_21477" style="mask-type:luminance" maskUnits="userSpaceOnUse" x="0" y="0" width="30" height="15">
<path d="M0 14.8583H29.5467V2.19345e-05H0V14.8583Z" fill="white"/>
</mask>
<g mask="url(#mask1_63_21477)">
<path d="M27.877 14.8031C27.0619 14.8031 26.37 14.1979 26.271 13.3884C25.5715 7.67833 20.6917 3.24147 14.7957 3.24147C11.1322 3.24147 7.72787 4.97006 5.56111 7.84495H8.03831C8.92052 7.84495 9.66567 8.53645 9.68999 9.4179C9.71478 10.3324 8.98133 11.0822 8.0718 11.0822L2.16963 11.0824C0.973034 11.0824 0.00292969 10.1123 0.00292969 8.91575V3.01768C0.00292969 2.13547 0.694434 1.39033 1.57588 1.366C2.45763 1.34168 3.2402 2.07466 3.2402 2.98419V5.55575C6.02149 2.08071 10.2528 0.00420094 14.796 0.00420094C18.7491 0.00420094 22.4654 1.54367 25.2603 4.33895C27.6225 6.70117 29.088 9.72182 29.4851 12.9866C29.6024 13.9521 28.8499 14.8035 27.8775 14.8035L27.877 14.8031Z" fill="black"/>
</g>
</svg>
