<svg width="27" height="20" viewBox="0 0 27 20" fill="none" xmlns="http://www.w3.org/2000/svg">
<path d="M1.41409 0.00672987C0.974277 0.0771003 0.580431 0.319304 0.319194 0.68006C0.0579567 1.04082 -0.0492709 1.49057 0.0210995 1.93039C0.09147 2.3702 0.333674 2.76405 0.69443 3.02529C1.05519 3.28652 1.50494 3.39375 1.94476 3.32338H6.91973L7.21823 4.15254L8.57806 8.29836L9.93788 12.4442C10.0705 12.8753 10.6344 13.2733 11.0655 13.2733H22.6738C23.1382 13.2733 23.6688 12.8753 23.8015 12.4442L26.488 4.15254C26.6206 3.72138 26.4216 3.32338 25.9573 3.32338H11.2314L9.97105 0.935392C9.83681 0.661302 9.62954 0.429572 9.37206 0.265719C9.11458 0.101866 8.81687 0.0122472 8.51172 0.00672987L1.87842 0.00672987C1.77913 -0.00224329 1.67922 -0.00224329 1.57993 0.00672987C1.51365 0.0027463 1.4472 0.0027463 1.38093 0.00672987L1.41409 0.00672987ZM11.8947 16.59C10.966 16.59 10.2364 17.3196 10.2364 18.2483C10.2364 19.177 10.966 19.9066 11.8947 19.9066C12.8234 19.9066 13.553 19.177 13.553 18.2483C13.553 17.3196 12.8234 16.59 11.8947 16.59ZM21.8447 16.59C20.916 16.59 20.1863 17.3196 20.1863 18.2483C20.1863 19.177 20.916 19.9066 21.8447 19.9066C22.7733 19.9066 23.503 19.177 23.503 18.2483C23.503 17.3196 22.7733 16.59 21.8447 16.59Z" fill="#1F1F1F"/>
</svg>
